<svg width="24" height="24" viewBox="0 0 24 24" fill="none" xmlns="http://www.w3.org/2000/svg">
<g id="Icon">
<g id="Group">
<path id="Vector" d="M4.24339 20.8369C4.26157 20.8369 4.27972 20.8352 4.29756 20.8316L16.6566 18.3761C16.7103 18.3655 16.7596 18.3391 16.7983 18.3005C16.8369 18.2618 16.8633 18.2125 16.874 18.1588L19.3225 5.83503C19.3358 5.76349 19.3204 5.68958 19.2796 5.62932C19.2388 5.56906 19.1759 5.52731 19.1045 5.51312C19.0332 5.49893 18.9591 5.51345 18.8983 5.55352C18.8376 5.5936 18.7951 5.656 18.78 5.7272L16.3676 17.8697L4.18977 20.2892C4.12247 20.3025 4.06254 20.3405 4.02164 20.3956C3.98074 20.4507 3.96179 20.519 3.96847 20.5873C3.97516 20.6556 4.007 20.719 4.05781 20.7651C4.10861 20.8113 4.17476 20.8369 4.24339 20.8369Z" fill="#808080"/>
<path id="Vector_2" d="M19.5879 20.6967L7.11185 8.2207L6.72078 8.61178L19.1968 21.0878L19.5879 20.6967Z" fill="#333333"/>
<g id="Vector_3">
<path d="M20.7188 20.09L19.2715 20.6206C19.2347 20.6274 19.2009 20.6451 19.1745 20.6716C19.148 20.698 19.1303 20.7318 19.1235 20.7686L18.5929 22.2158L17.0298 20.6528C17.0094 20.6323 16.9942 20.6072 16.9856 20.5796C16.977 20.552 16.9753 20.5227 16.9805 20.4943L17.2934 18.7905L18.9972 18.4776C19.0256 18.4723 19.0549 18.4741 19.0825 18.4827C19.1101 18.4913 19.1353 18.5065 19.1557 18.5269L20.7188 20.09Z" fill="#3689B0"/>
<path d="M20.7188 20.09L19.2715 20.6206C19.2347 20.6274 19.2009 20.6451 19.1745 20.6716C19.148 20.698 19.1303 20.7318 19.1235 20.7686L18.5929 22.2158L18.8216 22.4446C18.9234 22.5464 19.0976 22.4921 19.1235 22.3506L19.392 20.8891L20.8535 20.6206C20.995 20.5946 21.0493 20.4205 20.9475 20.3187L20.7188 20.09Z" fill="#F0B847"/>
</g>
<g id="Group_2">
<g id="Vector_4">
<path d="M7.8561 10.8641C7.8561 10.8641 5.56303 11.2265 4.15435 12.6352C1.758 15.0315 3.95382 17.4687 3.25537 21.5182C3.21816 21.734 3.17356 21.9489 3.12227 22.1618C3.07952 22.3392 3.29798 22.4594 3.42444 22.3278C3.9546 21.7759 4.76245 20.6933 4.8476 19.1578C4.96516 17.0377 4.04154 15.3721 5.21927 13.9323C6.01556 12.9587 9.13916 12.1456 9.13916 12.1456L7.8561 10.8641Z" fill="#EF3837"/>
<path d="M11.1361 5.65346C9.72736 7.06214 9.36504 9.35524 9.36504 9.35524L10.6479 10.6369C10.6479 10.6369 11.4595 7.5147 12.4331 6.71841C13.8729 5.54068 15.5385 6.4643 17.6586 6.34674C19.1941 6.26159 20.2768 5.45374 20.8286 4.92358C20.9603 4.79713 20.84 4.5787 20.6626 4.62141C20.4498 4.67268 20.2353 4.71696 20.0196 4.75419C15.9701 5.45268 13.5325 3.25711 11.1361 5.65346Z" fill="#EF3837"/>
<path d="M9.36504 9.35524L7.8561 10.8641L9.13916 12.1456L10.6479 10.6369L9.36504 9.35524Z" fill="#F0B847"/>
</g>
<path id="Vector_5" d="M5.30127 8.22203L4.31384 6.2274C4.18186 5.96081 4.46371 5.67893 4.73034 5.81091L6.72489 6.79838L7.07547 6.97195C7.10339 6.98576 7.12736 7.00644 7.14513 7.03203C7.1629 7.05763 7.17388 7.08731 7.17707 7.1183L7.33197 8.62693C7.34392 8.74319 7.24601 8.84106 7.12978 8.82911L5.62116 8.67421C5.59016 8.67103 5.56047 8.66004 5.53487 8.64227C5.50927 8.6245 5.48859 8.60054 5.47477 8.57261L5.30127 8.22203Z" fill="#3689B0"/>
</g>
</g>
</g>
</svg>
